<?xml version="1.0" encoding="utf-8"?>
<!-- Generator: Adobe Illustrator 22.1.0, SVG Export Plug-In . SVG Version: 6.00 Build 0)  -->
<svg version="1.1" id="icon" xmlns="http://www.w3.org/2000/svg" xmlns:xlink="http://www.w3.org/1999/xlink" x="0px" y="0px"
	 viewBox="0 0 50 50" style="enable-background:new 0 0 50 50;" xml:space="preserve">
<g id="XozLSY.tif">
	<g>
		<path d="M24.8,27.1c-0.5-0.9-1.2-1.6-2.1-2.1c-0.2-0.1-0.4-0.2-0.6-0.3c0.2-0.1,0.4-0.2,0.5-0.3c1.7-1.1,2.2-2.7,2.1-4.6
			c-0.2-2.9-2.2-4.6-4.8-5c-0.5-0.1-0.8-0.1-1.3-0.2H7.7v21.7h10.8c0.6-0.1,1.3-0.2,1.9-0.3c2.6-0.5,4.7-2.8,4.9-5.6
			C25.5,29.3,25.4,28.2,24.8,27.1z M12.7,18.6C12.7,18.6,12.8,18.6,12.7,18.6c1.7,0,3.5-0.1,5.1,0c0.4,0,0.7,0.1,1.2,0.2
			c0.7,0.2,1.2,0.6,1.4,1.4c0.4,2-0.5,2.9-2.2,3.1c-1.7,0.1-3.6,0.1-5.3,0.1c0,0-0.1,0-0.1-0.1L12.7,18.6L12.7,18.6z M20.6,31
			c-0.3,0.8-0.9,1.3-1.7,1.5c-0.5,0.1-0.9,0.2-1.4,0.2c-1.5,0-3,0-4.6,0c-0.1,0-0.2,0-0.3,0v-5.7c0.1,0,0.3,0,0.4,0c1.5,0,3,0,4.5,0
			c0.6,0,1.2,0.1,1.8,0.3c0.8,0.3,1.4,0.9,1.5,1.8C20.9,29.7,20.8,30.3,20.6,31z"/>
		<path d="M33.1,29.2c3.1,0,6.2,0,9.4,0v-2.1c-0.1-0.4-0.1-0.7-0.2-1.1c-0.5-2.6-1.8-4.6-4.3-5.6c-1.5-0.5-3-0.7-4.6-0.5
			c-2.6,0.4-4.5,1.6-5.5,4c-1,2.1-1,4.4-0.5,6.6c0.4,2,1.4,3.5,3.2,4.5c2.3,1.3,4.6,1.5,7.2,0.8c1.7-0.5,3.1-1.5,4-3.2
			c0.3-0.5,0.4-0.9,0.6-1.5c-0.2,0-0.2,0-0.3,0c-1.2,0-2.5,0-3.6,0c-0.2,0-0.4,0.1-0.4,0.3c-0.4,0.5-0.8,1-1.5,1.3
			c-0.7,0.3-1.4,0.3-2.1,0.2c-1.8-0.2-3.2-1.7-3.1-3.8C31.8,29.2,32.5,29.2,33.1,29.2z M34.6,23.1c2.1-0.1,3.6,1.3,3.6,3.3h-6.9
			C31.2,24.8,32.8,23.2,34.6,23.1z"/>
		<rect x="30.4" y="15.7" width="8.7" height="2.1"/>
	</g>
</g>
</svg>
