<svg version="1.1" id="icon" xmlns="http://www.w3.org/2000/svg" xmlns:xlink="http://www.w3.org/1999/xlink" x="0px" y="0px" viewBox="0 0 50 50" style="enable-background:new 0 0 50 50;" xml:space="preserve">

                            <path id="linkedin" class="st0" d="M18.1,36.6h-5.3V20.8h5.3V36.6z M17.6,17.8c-0.4,0.5-0.9,0.7-1.5,0.8c-0.7,0.1-1.4,0.1-2.1-0.2
                            c-1-0.5-1.5-1.3-1.5-2.4c0-1.3,0.9-2.3,2.1-2.6c0.2,0,0.5-0.1,0.8-0.1c0.6,0,1.2,0.1,1.7,0.5c0.7,0.4,1.1,1,1.2,1.8
                            C18.3,16.5,18.2,17.2,17.6,17.8z M36.9,36.4v0.1h-5.3v-0.1c0-2.9,0-5.7,0-8.6c0-0.6-0.1-1.2-0.3-1.8c-0.2-0.5-0.4-0.9-0.9-1.2
                            c-0.4-0.2-0.9-0.3-1.3-0.3c-1,0-1.8,0.5-2.3,1.4c-0.3,0.5-0.4,1-0.4,1.6c0,3,0,6,0,8.9v0.1h-5.3V20.8h5.3V23c0,0,0,0,0,0
                            c0.4-0.6,0.9-1.1,1.4-1.6c0.6-0.5,1.4-0.8,2.1-0.9c0.9-0.1,1.8-0.1,2.7,0.1c1.6,0.4,2.7,1.4,3.4,2.9c0.4,0.8,0.6,1.6,0.7,2.5
                            C36.9,26.6,36.9,33.5,36.9,36.4z"></path>
                       </svg>