<svg version="1.1" id="icon" xmlns="http://www.w3.org/2000/svg" xmlns:xlink="http://www.w3.org/1999/xlink" x="0px" y="0px" viewBox="0 0 50 50" style="enable-background:new 0 0 50 50;" xml:space="preserve">
 
                        <path class="mail1" d="M41.1,37.9H8.9c-0.9,0-1.7-0.6-1.7-1.4V22.5c0-1.2,1.6-1.8,2.6-1.1L24,30.3c0.6,0.4,1.4,0.4,2,0l14.1-8.9
                            c1.1-0.7,2.6,0,2.6,1.1v13.9C42.7,37.2,42,37.9,41.1,37.9z"></path>
                        <path class="mail2" d="M24,25.3L8.4,15.5c-1.3-0.8-0.6-2.7,1-2.7h31.1c1.7,0,2.4,1.8,1,2.7L26,25.3C25.4,25.7,24.6,25.7,24,25.3z"></path>
                        </svg>